<?xml version="1.0" standalone="no"?>
<!DOCTYPE svg PUBLIC "-//W3C//DTD SVG 20010904//EN"
 "http://www.w3.org/TR/2001/REC-SVG-20010904/DTD/svg10.dtd">
<svg version="1.0" xmlns="http://www.w3.org/2000/svg"
 width="512.000000pt" height="512.000000pt" viewBox="0 0 512.000000 512.000000"
 preserveAspectRatio="xMidYMid meet">
<metadata>
Created by potrace 1.14, written by Peter Selinger 2001-2017
</metadata>
<g transform="translate(0.000000,512.000000) scale(0.100000,-0.100000)"
fill="#000000" stroke="none">
<path d="M1268 5109 c-102 -24 -218 -111 -272 -203 -59 -102 -56 40 -56 -2346
0 -2386 -3 -2244 56 -2346 56 -95 157 -170 269 -200 75 -20 2516 -20 2592 0
156 42 277 164 312 317 14 61 14 4397 0 4458 -35 153 -167 285 -320 320 -55
13 -2528 13 -2581 0z m2598 -186 c50 -27 97 -75 121 -122 16 -33 18 -75 21
-458 l3 -423 -1451 0 -1450 0 0 409 c0 282 4 418 12 442 16 47 57 103 95 129
75 51 18 49 1358 47 l1250 -2 41 -22z m144 -2198 l0 -1025 -1450 0 -1450 0 0
1025 0 1025 1450 0 1450 0 0 -1025z m-2 -1777 c-3 -547 -4 -596 -21 -629 -24
-47 -71 -95 -121 -122 l-41 -22 -1265 0 -1265 0 -41 22 c-50 27 -97 75 -121
122 -17 33 -18 82 -21 629 l-2 592 1450 0 1450 0 -2 -592z"/>
<path d="M2167 4670 c-13 -11 -28 -31 -31 -45 -8 -33 18 -83 50 -95 15 -6 240
-10 550 -10 l526 0 29 29 c31 31 36 59 17 94 -25 47 -13 46 -579 47 -520 0
-537 -1 -562 -20z"/>
<path d="M2164 4326 c-21 -18 -28 -32 -28 -61 0 -29 7 -43 28 -61 l27 -24 410
0 410 0 24 25 c17 16 25 35 25 60 0 25 -8 44 -25 60 l-24 25 -410 0 -410 0
-27 -24z"/>
<path d="M2180 3557 c-54 -27 -61 -99 -13 -137 25 -19 42 -20 562 -20 566 1
554 0 579 47 19 35 14 63 -17 94 l-29 29 -529 0 c-405 0 -534 -3 -553 -13z"/>
<path d="M2179 3215 c-32 -17 -52 -66 -40 -98 22 -56 11 -55 459 -59 l414 -3
24 28 c35 41 32 88 -7 121 l-31 26 -396 0 c-326 -1 -402 -3 -423 -15z"/>
<path d="M2955 2545 l-199 -225 -86 84 c-47 46 -95 89 -107 95 -30 15 -69 14
-101 -3 -33 -18 -334 -322 -352 -355 -7 -13 -14 -58 -17 -100 -6 -96 10 -147
56 -178 l34 -23 754 0 c649 0 758 2 783 15 56 29 60 44 60 220 -1 102 -5 170
-13 187 -7 15 -108 136 -226 268 l-213 240 -87 0 -86 0 -200 -225z m495 -92
c111 -126 206 -239 211 -252 6 -13 8 -72 7 -130 l-3 -106 -729 -3 -728 -2 4
65 4 66 149 149 150 150 85 -84 c47 -46 95 -89 107 -95 30 -15 69 -14 101 3
15 8 117 116 227 240 110 124 203 226 206 226 4 0 98 -102 209 -227z"/>
<path d="M2180 1267 c-54 -27 -61 -99 -13 -137 25 -19 42 -20 562 -20 566 1
554 0 579 47 19 35 14 63 -17 94 l-29 29 -529 0 c-405 0 -534 -3 -553 -13z"/>
<path d="M2179 925 c-32 -17 -52 -66 -40 -98 22 -56 11 -55 459 -59 l414 -3
24 28 c35 41 32 88 -7 121 l-31 26 -396 0 c-326 -1 -402 -3 -423 -15z"/>
</g>
</svg>
